<?xml version="1.0" encoding="UTF-8" standalone="no"?>
<!-- Created with Inkscape (http://www.inkscape.org/) -->

<svg
   xmlns:dc="http://purl.org/dc/elements/1.1/"
   xmlns:cc="http://creativecommons.org/ns#"
   xmlns:rdf="http://www.w3.org/1999/02/22-rdf-syntax-ns#"
   xmlns:svg="http://www.w3.org/2000/svg"
   xmlns="http://www.w3.org/2000/svg"
   xmlns:sodipodi="http://sodipodi.sourceforge.net/DTD/sodipodi-0.dtd"
   xmlns:inkscape="http://www.inkscape.org/namespaces/inkscape"
   width="480"
   height="480"
   id="svg2"
   version="1.1"
   inkscape:version="0.48.1 r9760"
   sodipodi:docname="launcher.svg">
  <defs
     id="defs4" />
  <sodipodi:namedview
     id="base"
     pagecolor="#ffffff"
     bordercolor="#666666"
     borderopacity="1.0"
     inkscape:pageopacity="0.0"
     inkscape:pageshadow="2"
     inkscape:zoom="1"
     inkscape:cx="375"
     inkscape:cy="255.4"
     inkscape:document-units="px"
     inkscape:current-layer="layer1"
     showgrid="true"
     inkscape:window-width="1030"
     inkscape:window-height="756"
     inkscape:window-x="0"
     inkscape:window-y="0"
     inkscape:window-maximized="0">
    <inkscape:grid
       type="xygrid"
       id="grid2985"
       empspacing="5"
       visible="true"
       enabled="true"
       snapvisiblegridlinesonly="true"
       spacingx="16px"
       spacingy="16px" />
  </sodipodi:namedview>
  <metadata
     id="metadata7">
    <rdf:RDF>
      <cc:Work
         rdf:about="">
        <dc:format>image/svg+xml</dc:format>
        <dc:type
           rdf:resource="http://purl.org/dc/dcmitype/StillImage" />
        <dc:title />
      </cc:Work>
    </rdf:RDF>
  </metadata>
  <g
     inkscape:label="Layer 1"
     inkscape:groupmode="layer"
     id="layer1"
     transform="translate(0,-572.36218)">
    <path
       style="fill:#0099cc;fill-opacity:1;stroke:none"
       d="m 0,0 480,0 0,80 -192,0 0,400 -96,0 0,-400 -192,0 z"
       id="path2991"
       inkscape:connector-curvature="0"
       transform="translate(0,572.36218)"
       sodipodi:nodetypes="ccccccccc" />
    <path
       style="fill:#ff0000;fill-opacity:0.62745099999999998;stroke:none"
       d="m 48,0 64,0 0,208 256,0 0,-208 64,0 0,480 -64,0 0,-208 -256,0 0,208 -64,0 z"
       id="path3769"
       inkscape:connector-curvature="0"
       transform="translate(0,572.36218)"
       sodipodi:nodetypes="ccccccccccccc" />
    <g
       id="g3825"
       style="fill:#000000;fill-opacity:0.56470591000000003">
      <path
         sodipodi:nodetypes="ccccc"
         inkscape:connector-curvature="0"
         id="path3761"
         d="m 208,860.36218 64,0 0,192.00002 -64,0 z"
         style="fill:#000000;fill-opacity:0.56470591000000003;stroke:none" />
      <path
         transform="translate(0,604.36218)"
         d="m 272,208 c 0,17.67311 -14.32689,32 -32,32 -17.67311,0 -32,-14.32689 -32,-32 0,-17.67311 14.32689,-32 32,-32 17.67311,0 32,14.32689 32,32 z"
         sodipodi:ry="32"
         sodipodi:rx="32"
         sodipodi:cy="208"
         sodipodi:cx="240"
         id="path3763"
         style="fill:#000000;fill-opacity:0.56470591000000003;stroke:none"
         sodipodi:type="arc" />
    </g>
  </g>
</svg>
